HIERARCHY
ROOT Hips
{
	OFFSET 0.000000 0.000000 0.000000
	CHANNELS 6 Xposition Yposition Zposition Zrotation Yrotation Xrotation 
	JOINT Spine
	{
		OFFSET 0.000000 10.181600 0.131500
		CHANNELS 3 Zrotation Yrotation Xrotation
		JOINT Spine1
		{
			OFFSET 0.000000 10.083500 -1.000800
			CHANNELS 3 Zrotation Yrotation Xrotation
			JOINT Spine2
			{
				OFFSET 0.000000 9.100000 -1.373400
				CHANNELS 3 Zrotation Yrotation Xrotation
				JOINT Neck
				{
					OFFSET 0.000000 16.671700 -2.516200
					CHANNELS 3 Zrotation Yrotation Xrotation
					JOINT Head
					{
						OFFSET -0.000000 9.617900 1.685000
						CHANNELS 3 Zrotation Yrotation Xrotation
						JOINT HeadTop_End
						{
							OFFSET -0.000000 17.815200 2.585000
							CHANNELS 3 Zrotation Yrotation Xrotation
							End Site
							{
								OFFSET 0.000000 0.000000 0.000000
							}
						}
						JOINT LeftEye
						{
							OFFSET 3.067600 6.409500 9.283600
							CHANNELS 3 Zrotation Yrotation Xrotation
							End Site
							{
								OFFSET 0.000000 0.000000 0.000000
							}
						}
						JOINT RightEye
						{
							OFFSET -3.067600 6.409500 9.283500
							CHANNELS 3 Zrotation Yrotation Xrotation
							End Site
							{
								OFFSET 0.000000 0.000000 0.000000
							}
						}
					}
				}
				JOINT LeftShoulder
				{
					OFFSET 4.570400 10.946000 -2.628000
					CHANNELS 3 Zrotation Yrotation Xrotation
					JOINT LeftArm
					{
						OFFSET 10.592400 -0.524600 -2.232100
						CHANNELS 3 Zrotation Yrotation Xrotation
						JOINT LeftForeArm
						{
							OFFSET 27.841500 -0.000100 0.000000
							CHANNELS 3 Zrotation Yrotation Xrotation
							JOINT LeftHand
							{
								OFFSET 28.328800 -0.000000 0.000000
								CHANNELS 3 Zrotation Yrotation Xrotation
								JOINT LeftHandThumb1
								{
									OFFSET 2.466100 -1.575000 2.682400
									CHANNELS 3 Zrotation Yrotation Xrotation
									JOINT LeftHandThumb2
									{
										OFFSET 3.229800 -1.864700 1.864700
										CHANNELS 3 Zrotation Yrotation Xrotation
										JOINT LeftHandThumb3
										{
											OFFSET 2.652600 -1.531500 1.531500
											CHANNELS 3 Zrotation Yrotation Xrotation
											JOINT LeftHandThumb4
											{
												OFFSET 1.954600 -1.128500 1.128500
												CHANNELS 3 Zrotation Yrotation Xrotation
												End Site
												{
													OFFSET 0.000000 0.000000 0.000000
												}
											}
										}
									}
								}
								JOINT LeftHandIndex1
								{
									OFFSET 9.109300 -0.517100 2.260100
									CHANNELS 3 Zrotation Yrotation Xrotation
									JOINT LeftHandIndex2
									{
										OFFSET 3.676400 -0.000000 0.000000
										CHANNELS 3 Zrotation Yrotation Xrotation
										JOINT LeftHandIndex3
										{
											OFFSET 2.883100 0.000000 -0.000000
											CHANNELS 3 Zrotation Yrotation Xrotation
											JOINT LeftHandIndex4
											{
												OFFSET 2.392700 0.000000 0.000000
												CHANNELS 3 Zrotation Yrotation Xrotation
												End Site
												{
													OFFSET 0.000000 0.000000 0.000000
												}
											}
										}
									}
								}
								JOINT LeftHandMiddle1
								{
									OFFSET 9.533400 -0.000000 0.000000
									CHANNELS 3 Zrotation Yrotation Xrotation
									JOINT LeftHandMiddle2
									{
										OFFSET 3.698200 0.000000 0.000000
										CHANNELS 3 Zrotation Yrotation Xrotation
										JOINT LeftHandMiddle3
										{
											OFFSET 2.950900 -0.000000 0.000000
											CHANNELS 3 Zrotation Yrotation Xrotation
											JOINT LeftHandMiddle4
											{
												OFFSET 2.833900 -0.000000 -0.000000
												CHANNELS 3 Zrotation Yrotation Xrotation
												End Site
												{
													OFFSET 0.000000 0.000000 0.000000
												}
											}
										}
									}
								}
								JOINT LeftHandRing1
								{
									OFFSET 9.104500 -0.043900 -1.865100
									CHANNELS 3 Zrotation Yrotation Xrotation
									JOINT LeftHandRing2
									{
										OFFSET 3.154000 -0.000000 0.000000
										CHANNELS 3 Zrotation Yrotation Xrotation
										JOINT LeftHandRing3
										{
											OFFSET 2.937700 -0.000000 -0.000000
											CHANNELS 3 Zrotation Yrotation Xrotation
											JOINT LeftHandRing4
											{
												OFFSET 2.647500 -0.000000 0.000000
												CHANNELS 3 Zrotation Yrotation Xrotation
												End Site
												{
													OFFSET 0.000000 0.000000 0.000000
												}
											}
										}
									}
								}
								JOINT LeftHandPinky1
								{
									OFFSET 8.077800 -0.488700 -3.806100
									CHANNELS 3 Zrotation Yrotation Xrotation
									JOINT LeftHandPinky2
									{
										OFFSET 3.600000 -0.000000 -0.000000
										CHANNELS 3 Zrotation Yrotation Xrotation
										JOINT LeftHandPinky3
										{
											OFFSET 2.114200 0.000000 -0.000000
											CHANNELS 3 Zrotation Yrotation Xrotation
											JOINT LeftHandPinky4
											{
												OFFSET 1.975700 0.000000 -0.000000
												CHANNELS 3 Zrotation Yrotation Xrotation
												End Site
												{
													OFFSET 0.000000 0.000000 0.000000
												}
											}
										}
									}
								}
							}
						}
					}
				}
				JOINT RightShoulder
				{
					OFFSET -4.570000 10.946200 -2.628000
					CHANNELS 3 Zrotation Yrotation Xrotation
					JOINT RightArm
					{
						OFFSET -10.592800 -0.524800 -2.232100
						CHANNELS 3 Zrotation Yrotation Xrotation
						JOINT RightForeArm
						{
							OFFSET -27.841500 -0.000000 0.000000
							CHANNELS 3 Zrotation Yrotation Xrotation
							JOINT RightHand
							{
								OFFSET -28.328800 -0.000000 0.000100
								CHANNELS 3 Zrotation Yrotation Xrotation
								JOINT RightHandPinky1
								{
									OFFSET -8.076700 -0.488500 -3.806000
									CHANNELS 3 Zrotation Yrotation Xrotation
									JOINT RightHandPinky2
									{
										OFFSET -3.600000 0.000000 0.000100
										CHANNELS 3 Zrotation Yrotation Xrotation
										JOINT RightHandPinky3
										{
											OFFSET -2.114200 0.000000 0.000000
											CHANNELS 3 Zrotation Yrotation Xrotation
											JOINT RightHandPinky4
											{
												OFFSET -1.975700 -0.000000 -0.000000
												CHANNELS 3 Zrotation Yrotation Xrotation
												End Site
												{
													OFFSET 0.000000 0.000000 0.000000
												}
											}
										}
									}
								}
								JOINT RightHandRing1
								{
									OFFSET -9.103600 -0.043900 -1.865100
									CHANNELS 3 Zrotation Yrotation Xrotation
									JOINT RightHandRing2
									{
										OFFSET -3.154000 0.000000 0.000000
										CHANNELS 3 Zrotation Yrotation Xrotation
										JOINT RightHandRing3
										{
											OFFSET -2.937700 -0.000000 -0.000000
											CHANNELS 3 Zrotation Yrotation Xrotation
											JOINT RightHandRing4
											{
												OFFSET -2.647500 0.000000 -0.000000
												CHANNELS 3 Zrotation Yrotation Xrotation
												End Site
												{
													OFFSET 0.000000 0.000000 0.000000
												}
											}
										}
									}
								}
								JOINT RightHandMiddle1
								{
									OFFSET -9.532500 -0.000000 0.000000
									CHANNELS 3 Zrotation Yrotation Xrotation
									JOINT RightHandMiddle2
									{
										OFFSET -3.698200 0.000000 -0.000000
										CHANNELS 3 Zrotation Yrotation Xrotation
										JOINT RightHandMiddle3
										{
											OFFSET -2.950900 -0.000000 -0.000000
											CHANNELS 3 Zrotation Yrotation Xrotation
											JOINT RightHandMiddle4
											{
												OFFSET -2.833900 0.000000 0.000100
												CHANNELS 3 Zrotation Yrotation Xrotation
												End Site
												{
													OFFSET 0.000000 0.000000 0.000000
												}
											}
										}
									}
								}
								JOINT RightHandIndex1
								{
									OFFSET -9.108300 -0.516800 2.260100
									CHANNELS 3 Zrotation Yrotation Xrotation
									JOINT RightHandIndex2
									{
										OFFSET -3.676400 0.000000 0.000000
										CHANNELS 3 Zrotation Yrotation Xrotation
										JOINT RightHandIndex3
										{
											OFFSET -2.883100 -0.000000 0.000000
											CHANNELS 3 Zrotation Yrotation Xrotation
											JOINT RightHandIndex4
											{
												OFFSET -2.392700 0.000000 0.000000
												CHANNELS 3 Zrotation Yrotation Xrotation
												End Site
												{
													OFFSET 0.000000 0.000000 0.000000
												}
											}
										}
									}
								}
								JOINT RightHandThumb1
								{
									OFFSET -2.464800 -1.572700 2.682600
									CHANNELS 3 Zrotation Yrotation Xrotation
									JOINT RightHandThumb2
									{
										OFFSET -3.229800 -1.864700 1.864700
										CHANNELS 3 Zrotation Yrotation Xrotation
										JOINT RightHandThumb3
										{
											OFFSET -2.652600 -1.531400 1.531400
											CHANNELS 3 Zrotation Yrotation Xrotation
											JOINT RightHandThumb4
											{
												OFFSET -1.954600 -1.128500 1.128500
												CHANNELS 3 Zrotation Yrotation Xrotation
												End Site
												{
													OFFSET 0.000000 0.000000 0.000000
												}
											}
										}
									}
								}
							}
						}
					}
				}
			}
		}
	}
	JOINT LeftUpLeg
	{
		OFFSET 8.207800 -6.751700 -1.599600
		CHANNELS 3 Zrotation Yrotation Xrotation
		JOINT LeftLeg
		{
			OFFSET -0.000000 -44.370500 0.284600
			CHANNELS 3 Zrotation Yrotation Xrotation
			JOINT LeftFoot
			{
				OFFSET 0.000000 -44.427900 -2.982200
				CHANNELS 3 Zrotation Yrotation Xrotation
				JOINT LeftToeBase
				{
					OFFSET -0.000000 -8.728700 10.710600
					CHANNELS 3 Zrotation Yrotation Xrotation
					JOINT LeftToe_End
					{
						OFFSET -0.000000 -0.000700 9.278100
						CHANNELS 3 Zrotation Yrotation Xrotation
						End Site
						{
							OFFSET 0.000000 0.000000 0.000000
						}
					}
				}
			}
		}
	}
	JOINT RightUpLeg
	{
		OFFSET -8.207800 -6.751700 -1.599600
		CHANNELS 3 Zrotation Yrotation Xrotation
		JOINT RightLeg
		{
			OFFSET 0.000000 -44.370500 0.286200
			CHANNELS 3 Zrotation Yrotation Xrotation
			JOINT RightFoot
			{
				OFFSET 0.000000 -44.427700 -2.983800
				CHANNELS 3 Zrotation Yrotation Xrotation
				JOINT RightToeBase
				{
					OFFSET -0.000000 -8.728700 10.710600
					CHANNELS 3 Zrotation Yrotation Xrotation
					JOINT RightToe_End
					{
						OFFSET -0.000000 -0.000700 9.278100
						CHANNELS 3 Zrotation Yrotation Xrotation
						End Site
						{
							OFFSET 0.000000 0.000000 0.000000
						}
					}
				}
			}
		}
	}
}
MOTION
Frames: 4
Frame Time: 0.033333
-0.692247 94.222023 1.352631 2.127618 0.741162 -1.206161 6.515192 -8.336454 2.128090 5.760536 -16.699951 3.405751 5.520381 -16.741123 3.592344 -6.650347 7.880309 -17.364109 2.783317 36.316677 3.095663 0.000000 0.000000 0.000000 0.000000 0.000000 0.000000 0.000000 0.000000 0.000000 -7.188435 -2.573650 1.357962 -21.990738 -18.574368 -6.962367 -0.000215 -60.240997 0.000005 -29.061514 -6.738968 -16.202408 6.061778 3.826406 -1.148855 1.308305 7.899638 4.090958 2.526903 1.610837 -0.504231 0.000000 0.000000 0.000000 -28.887272 3.323904 -0.856345 -28.887293 3.323907 -0.856344 -14.431215 1.716144 -0.217280 0.000000 0.000000 0.000000 -27.772459 3.206310 -0.792856 -28.697275 3.303941 -0.845370 -17.100603 2.024660 -0.304421 0.000000 0.000000 0.000000 -33.202129 3.766532 -1.123285 -29.696024 3.408386 -0.903838 -17.290468 2.046422 -0.311184 0.000000 0.000000 0.000000 -45.877571 9.032993 -2.075638 -29.342381 -0.218704 1.116822 -14.431233 1.716176 -0.217291 0.000000 0.000000 0.000000 8.637136 4.077342 2.350138 33.419220 17.407978 -14.454074 -0.000005 63.843296 0.000007 3.420798 -17.114008 9.995768 46.787460 -5.057677 -2.188466 3.395887 -0.410411 -0.012127 1.697922 -0.206094 -0.003061 0.000000 0.000000 0.000000 30.902088 -3.567508 -0.986372 12.349718 -1.487292 -0.160925 3.694688 -0.448202 -0.014461 0.000000 0.000000 0.000000 22.068830 -2.611490 -0.509344 15.452851 -1.852607 -0.251379 4.276060 -0.520613 -0.019357 0.000000 0.000000 0.000000 18.479877 -2.203585 -0.358524 18.611151 -2.218691 -0.363582 1.697927 -0.206093 -0.003059 0.000000 0.000000 0.000000 -6.488739 -3.762495 -1.439575 -0.935621 -8.607990 4.734342 -2.102393 0.077448 -1.273225 0.000000 0.000000 0.000000 -17.660820 -11.812855 28.390594 -1.548181 -10.561885 2.533522 15.566221 -14.711998 -9.793473 -0.000005 0.000003 -13.462421 0.000000 0.000000 0.000000 9.028584 -16.319754 -33.748940 6.940883 5.201565 48.638630 -14.424273 1.812646 -20.677355 0.000004 0.000000 0.000010 0.000000 0.000000 0.000000 
-0.633333 93.686234 5.526501 1.335627 -6.305468 5.595142 5.999155 -6.314439 1.043736 6.937502 -13.530231 1.244375 6.795767 -13.583249 1.365360 -7.036451 7.918632 -17.769106 1.348263 36.470688 2.530140 0.000000 0.000000 0.000000 0.000000 0.000000 0.000000 0.000000 0.000000 0.000000 -7.475686 -2.241879 1.332444 -21.240128 -16.262859 -9.117074 -0.000223 -63.036221 0.000019 -26.837605 -6.855707 -17.052004 6.061778 3.826406 -1.148855 1.308305 7.899638 4.090958 2.526903 1.610837 -0.504231 0.000000 0.000000 0.000000 -26.672340 3.089039 -0.732447 -26.672333 3.089058 -0.732432 -13.326291 1.587314 -0.185452 0.000000 0.000000 0.000000 -25.973146 3.013911 -0.695221 -26.560280 3.077036 -0.726438 -15.802647 1.875169 -0.260281 0.000000 0.000000 0.000000 -31.400721 3.584227 -1.007801 -27.558565 3.183604 -0.780941 -15.992469 1.897093 -0.266519 0.000000 0.000000 0.000000 -43.640179 8.844498 -1.886456 -27.139894 -0.526885 1.102507 -13.326295 1.587293 -0.185456 0.000000 0.000000 0.000000 8.538772 3.982545 2.299784 35.923782 13.806256 -13.232073 -0.000002 67.478554 0.000018 3.986096 -16.043810 10.079347 47.353065 -5.104074 -2.238538 3.957114 -0.478406 -0.016474 1.978508 -0.240140 -0.004151 0.000000 0.000000 0.000000 31.359840 -3.614887 -1.015045 12.891550 -1.551424 -0.175284 4.024223 -0.488106 -0.017153 0.000000 0.000000 0.000000 22.525772 -2.662704 -0.530360 15.994878 -1.915871 -0.269202 4.605581 -0.560501 -0.022456 0.000000 0.000000 0.000000 19.041925 -2.268101 -0.380456 19.173223 -2.283136 -0.385660 1.978517 -0.240134 -0.004147 0.000000 0.000000 0.000000 -6.488739 -3.762495 -1.439575 -0.935621 -8.607990 4.734342 -2.102393 0.077448 -1.273225 0.000000 0.000000 0.000000 -14.609579 -8.577601 20.708633 -2.194496 -10.900179 4.614606 9.863121 -20.905418 -8.251184 0.000014 0.000006 -17.953213 0.000000 0.000000 0.000000 11.332334 -8.634936 -38.342533 5.480193 4.430497 47.155983 -14.139843 -1.013836 -14.375704 0.000004 -0.000001 -0.055651 0.000000 0.000000 0.000000 
-0.950331 93.417549 9.486776 -0.179850 -8.837608 9.004291 5.951256 -5.288787 0.660794 7.058919 -11.640805 0.560070 6.962448 -11.687105 0.654014 -7.123697 7.666577 -18.422602 0.862468 35.579155 1.717805 0.000000 0.000000 0.000000 0.000000 0.000000 0.000000 0.000000 0.000000 0.000000 -7.952835 -2.222375 1.425106 -21.603563 -15.810736 -11.698721 -0.000218 -65.500977 0.000002 -24.557877 -7.313610 -18.350687 6.061778 3.826406 -1.148855 1.308305 7.899638 4.090958 2.526903 1.610837 -0.504231 0.000000 0.000000 0.000000 -24.402773 2.843551 -0.614976 -24.402773 2.843519 -0.614997 -12.193770 1.454619 -0.155376 0.000000 0.000000 0.000000 -24.129280 2.813655 -0.601471 -24.370535 2.840000 -0.613403 -14.472313 1.720937 -0.218508 0.000000 0.000000 0.000000 -29.554819 3.393706 -0.895464 -25.368364 2.948566 -0.663776 -14.662103 1.743010 -0.224246 0.000000 0.000000 0.000000 -41.348392 8.643881 -1.700492 -24.881826 -0.842008 1.075531 -12.193759 1.454618 -0.155385 0.000000 0.000000 0.000000 8.828034 4.203028 2.429002 39.686089 9.601745 -13.660034 0.000009 69.718094 0.000035 5.803742 -15.313171 6.840613 49.172081 -5.249905 -2.402637 5.761492 -0.696610 -0.034976 2.880659 -0.349544 -0.008788 0.000000 0.000000 0.000000 32.831841 -3.765647 -1.109784 14.633771 -1.756674 -0.225576 5.083658 -0.616299 -0.027374 0.000000 0.000000 0.000000 23.995041 -2.826195 -0.600706 17.737833 -2.118104 -0.330547 5.665057 -0.688581 -0.033965 0.000000 0.000000 0.000000 20.849182 -2.473971 -0.455212 20.980545 -2.488844 -0.460923 2.880633 -0.349550 -0.008789 0.000000 0.000000 0.000000 -6.488739 -3.762495 -1.439575 -0.935621 -8.607990 4.734342 -2.102393 0.077448 -1.273225 0.000000 0.000000 0.000000 -9.836718 -5.600969 7.242005 -5.858256 -9.489095 24.772018 2.916265 -21.726957 -7.026071 -0.000002 0.000017 -29.871111 0.000000 0.000000 0.000000 12.203410 -3.486901 -39.031940 3.446198 2.847508 47.632591 -12.711938 -2.526307 -17.062105 0.000001 0.000004 -0.065066 0.000000 0.000000 0.000000 
-1.675352 93.786758 13.589771 -0.164532 -7.674266 9.508887 5.594351 -5.004728 0.757426 6.059964 -10.943890 0.906176 5.984324 -10.971982 0.993745 -6.953594 7.123425 -19.132215 1.618239 33.556747 0.552073 0.000000 0.000000 0.000000 0.000000 0.000000 0.000000 0.000000 0.000000 0.000000 -8.580672 -2.520395 1.643129 -22.826017 -16.722549 -14.068931 -0.000189 -67.472450 -0.000008 -21.757679 -7.890225 -20.108267 6.061778 3.826406 -1.148855 1.308305 7.899638 4.090958 2.526903 1.610837 -0.504231 0.000000 0.000000 0.000000 -21.616379 2.535917 -0.484211 -21.616385 2.535918 -0.484188 -10.802835 1.290830 -0.122063 0.000000 0.000000 0.000000 -21.865349 2.563659 -0.495257 -21.682104 2.543233 -0.487123 -12.838555 1.530236 -0.172167 0.000000 0.000000 0.000000 -27.288439 3.154877 -0.765983 -22.679464 2.654035 -0.532347 -13.028298 1.552445 -0.177285 0.000000 0.000000 0.000000 -38.536022 8.387618 -1.483517 -22.107725 -1.227245 1.025423 -10.802817 1.290834 -0.122052 0.000000 0.000000 0.000000 9.394078 4.577519 2.671559 44.745686 5.586624 -15.441403 -0.000080 69.148422 -0.000054 8.443948 -14.249461 1.589957 51.815426 -5.452229 -2.649125 8.382468 -1.012284 -0.074065 4.190902 -0.508286 -0.018602 0.000000 0.000000 0.000000 34.970665 -3.980147 -1.254278 17.164831 -2.051833 -0.309705 6.622451 -0.802098 -0.046408 0.000000 0.000000 0.000000 26.129709 -3.060298 -0.710333 20.270023 -2.408259 -0.430557 7.203917 -0.874179 -0.054895 0.000000 0.000000 0.000000 23.475082 -2.768552 -0.575336 23.606485 -2.783132 -0.581704 4.190892 -0.508288 -0.018588 0.000000 0.000000 0.000000 -6.488739 -3.762495 -1.439575 -0.935621 -8.607990 4.734342 -2.102393 0.077448 -1.273225 0.000000 0.000000 0.000000 -4.996888 -3.136297 1.103107 -7.102701 -8.212452 34.680187 -4.015188 -16.615559 0.956328 0.000009 -0.000020 -44.456520 0.000000 0.000000 0.000000 11.478190 -1.223835 -36.365509 0.558407 0.606370 47.086426 -10.941390 -2.647642 -20.087275 0.000004 -0.000002 -0.007647 0.000000 0.000000 0.000000 
